<?xml version="1.0" encoding="UTF-8"?>
<svg version="1.1" xmlns="http://www.w3.org/2000/svg" width="512" height="512">
<path d="M0 0 C1.28901215 0.00081573 1.28901215 0.00081573 2.60406494 0.00164795 C15.38058874 0.03881061 27.52480783 0.56517756 39.8125 4.375 C40.8948291 4.69645996 40.8948291 4.69645996 41.99902344 5.02441406 C61.11682697 10.82305911 78.59011775 20.45832634 93.8125 33.375 C94.69808594 34.11363281 95.58367187 34.85226563 96.49609375 35.61328125 C117.61906381 53.9198553 132.34140892 80.56288269 135.8125 108.375 C136.14250029 114.06497215 136.19959507 119.73915438 136.1875 125.4375 C136.18828552 126.22281097 136.18907104 127.00812195 136.18988037 127.81723022 C136.16991077 144.56726784 134.79248031 161.29100955 129.8125 177.375 C130.6375 177.560625 131.4625 177.74625 132.3125 177.9375 C138.33203282 180.40980812 143.16038362 184.49347541 146.3125 190.25 C149.99959779 199.87925093 148.81967173 212.29303381 145.13671875 221.7265625 C141.3770403 229.2459194 135.99348963 235.00396283 128.8125 239.375 C125.66319107 240.42476964 123.42435544 240.47631595 120.125 240.4375 C119.13113281 240.42847656 118.13726562 240.41945312 117.11328125 240.41015625 C116.35402344 240.39855469 115.59476562 240.38695312 114.8125 240.375 C114.44125 242.31826172 114.44125 242.31826172 114.0625 244.30078125 C112.92496423 249.38886737 111.06994156 253.87789539 108.8125 258.5625 C108.41659668 259.38693604 108.02069336 260.21137207 107.61279297 261.06079102 C99.67272321 277.107451 88.06401032 290.70173564 73.9296875 301.6328125 C71.72909152 303.20307268 71.72909152 303.20307268 70.8125 305.375 C71.9675 305.375 73.1225 305.375 74.3125 305.375 C88.25205713 306.93852063 101.5679439 317.30651019 110.5 327.4375 C115.28525898 333.50619434 121.17439168 342.56089623 122.0402832 350.45043945 C122.66709278 352.64220531 122.66709278 352.64220531 125.23901367 353.52832031 C126.30869385 353.83350586 127.37837402 354.13869141 128.48046875 354.453125 C129.67317383 354.80503906 130.86587891 355.15695312 132.09472656 355.51953125 C132.73156372 355.6995166 133.36840088 355.87950195 134.02453613 356.06494141 C137.35969086 357.0104824 140.67639741 358.01743374 143.99609375 359.015625 C144.99758957 359.31442566 144.99758957 359.31442566 146.01931763 359.6192627 C187.50947506 372.04112362 187.50947506 372.04112362 198.8125 386.375 C199.24304688 386.90947754 199.67359375 387.44395508 200.1171875 387.99462891 C221.62840254 414.8763804 251.8125 460.98324896 251.8125 496.375 C88.1325 496.375 -75.5475 496.375 -244.1875 496.375 C-243.05950098 487.35100785 -243.05950098 487.35100785 -241.69140625 483.15234375 C-241.38565674 482.21398682 -241.07990723 481.27562988 -240.76489258 480.30883789 C-240.42997803 479.32004639 -240.09506348 478.33125488 -239.75 477.3125 C-239.39510498 476.26247803 -239.04020996 475.21245605 -238.67456055 474.13061523 C-229.43825117 447.40150776 -216.85581648 421.27498752 -200.1875 398.375 C-199.71038574 397.71902832 -199.23327148 397.06305664 -198.74169922 396.38720703 C-176.138834 365.69813791 -134.12856031 355.98914364 -98.1875 348.375 C-97.5275 348.375 -96.8675 348.375 -96.1875 348.375 C-96.27451172 347.51841797 -96.27451172 347.51841797 -96.36328125 346.64453125 C-96.98051775 335.55190964 -92.60274111 325.89735182 -85.41796875 317.59375 C-78.9709353 311.18058888 -71.73426671 307.30272222 -63.1875 304.375 C-64.52941406 303.26705078 -64.52941406 303.26705078 -65.8984375 302.13671875 C-85.53264551 285.74173279 -101.46876051 265.49506331 -108.1875 240.375 C-109.1053125 240.42140625 -110.023125 240.4678125 -110.96875 240.515625 C-119.89461125 240.77815033 -125.6993034 240.58993001 -132.3046875 234.38671875 C-136.59128584 229.84104029 -139.91062203 225.202455 -142.1875 219.375 C-142.54199219 218.48683594 -142.89648438 217.59867188 -143.26171875 216.68359375 C-145.58712803 208.37295383 -145.78776344 197.52885794 -142.125 189.625 C-139.31728467 185.00662734 -135.47710056 180.25804013 -130.07836914 178.80883789 C-129.45438232 178.66567139 -128.83039551 178.52250488 -128.1875 178.375 C-128.35878418 177.80168945 -128.53006836 177.22837891 -128.70654297 176.63769531 C-129.49925082 173.96893005 -130.28088459 171.29703409 -131.0625 168.625 C-131.33191406 167.72394531 -131.60132813 166.82289063 -131.87890625 165.89453125 C-135.57893501 153.17004209 -136.59635061 141.04374306 -136.5625 127.875 C-136.56195618 127.07985992 -136.56141235 126.28471985 -136.56085205 125.46548462 C-136.48214554 100.42642397 -132.08355186 77.13352515 -113.86328125 58.65234375 C-111.98592719 57.22135359 -110.49396632 56.78202347 -108.1875 56.375 C-108.14625 55.446875 -108.105 54.51875 -108.0625 53.5625 C-106.03475705 39.97114183 -93.5368306 28.39279583 -83.1875 20.375 C-59.48078819 3.70452685 -28.20360361 -0.06736367 0 0 Z M51.8125 314.375 C51.8125 318.995 51.8125 323.615 51.8125 328.375 C53.7925 328.684375 53.7925 328.684375 55.8125 329 C61.14068623 330.18310907 64.87983486 332.64444185 68.8125 336.375 C69.32611084 337.18501465 69.83972168 337.9950293 70.36889648 338.82958984 C73.77596284 342.37860312 77.01921608 342.86310711 81.734375 343.83203125 C82.59436096 344.02472092 83.45434692 344.21741058 84.34039307 344.41593933 C87.07742849 345.02481361 89.8194411 345.6064331 92.5625 346.1875 C94.42357053 346.59652116 96.28425376 347.00730886 98.14453125 347.41992188 C102.69628714 348.42547192 107.25269642 349.40662738 111.8125 350.375 C111.3607047 348.94427355 110.90229466 347.51563498 110.44116211 346.08789062 C110.18660751 345.29209595 109.93205292 344.49630127 109.66978455 343.6763916 C105.42084676 332.2700624 94.15323149 323.06805033 83.65234375 317.78515625 C74.43487027 313.92120929 61.15803959 309.70223021 51.8125 314.375 Z M-77.5 323.0625 C-84.02451807 330.08890408 -86.42167545 336.99716518 -87.1875 346.375 C-83.65551646 345.76050625 -80.14110929 345.07421363 -76.625 344.375 C-75.63435547 344.20355469 -74.64371094 344.03210938 -73.62304688 343.85546875 C-67.06678775 342.50501006 -63.67779271 340.71295483 -59.71337891 335.25756836 C-55.73060178 330.34377725 -50.16108232 329.37059705 -44.1875 328.375 C-44.1875 323.755 -44.1875 319.135 -44.1875 314.375 C-55.00727668 308.96511166 -69.22099914 315.38814527 -77.5 323.0625 Z " fill="#F5CEBD" transform="translate(252.1875,7.625)"/>
<path d="M0 0 C1.28901215 0.00081573 1.28901215 0.00081573 2.60406494 0.00164795 C15.38058874 0.03881061 27.52480783 0.56517756 39.8125 4.375 C40.8948291 4.69645996 40.8948291 4.69645996 41.99902344 5.02441406 C61.11682697 10.82305911 78.59011775 20.45832634 93.8125 33.375 C95.14087891 34.48294922 95.14087891 34.48294922 96.49609375 35.61328125 C117.61906381 53.9198553 132.34140892 80.56288269 135.8125 108.375 C136.14248638 114.06473224 136.20359027 119.73930821 136.1875 125.4375 C136.1862915 126.22912537 136.18508301 127.02075073 136.18383789 127.83636475 C136.0764165 153.90111657 131.6603157 179.48277041 120.8125 203.375 C120.4825 203.375 120.1525 203.375 119.8125 203.375 C119.69358398 202.15997803 119.69358398 202.15997803 119.57226562 200.92041016 C117.53111929 180.67528335 114.4217282 160.8109676 110.45507812 140.85205078 C110.19413361 139.53745628 110.19413361 139.53745628 109.92791748 138.19630432 C109.59878597 136.54678618 109.26632277 134.89792812 108.92999268 133.24986267 C108.32367904 130.23811965 107.8125 127.4560479 107.8125 124.375 C106.79720215 124.68228027 105.7819043 124.98956055 104.73583984 125.30615234 C89.74821686 129.56120251 73.60625588 128.77316887 58.1875 128.75 C56.9531723 128.75012085 55.7188446 128.7502417 54.44711304 128.75036621 C33.66880292 128.72150069 13.37210665 127.48482876 -7.19866943 124.64385986 C-10.33310721 124.2201312 -13.47335094 123.84537751 -16.61328125 123.46484375 C-30.47177952 121.73170187 -44.20296514 119.38830427 -57.9375 116.875 C-58.72584229 116.73138031 -59.51418457 116.58776062 -60.32641602 116.43978882 C-69.55222415 114.74901048 -78.7024197 112.87502602 -87.80828857 110.6192627 C-90.68550433 109.91422815 -93.21152162 109.375 -96.1875 109.375 C-100.77110219 118.16836449 -103.29485679 127.09200555 -105.4375 136.75 C-105.68322754 137.84739502 -105.92895508 138.94479004 -106.18212891 140.07543945 C-109.41950895 155.25944349 -110.56802214 170.41113135 -111.3125 185.875 C-111.39920085 187.58466282 -111.48643779 189.29429854 -111.57421875 191.00390625 C-111.78479795 195.12731942 -111.98822157 199.25102588 -112.1875 203.375 C-115.0604978 200.61655317 -117.61532033 198.13148574 -119.46875 194.58984375 C-119.83331299 193.90083984 -120.19787598 193.21183594 -120.57348633 192.50195312 C-120.94111084 191.77943359 -121.30873535 191.05691406 -121.6875 190.3125 C-122.07768311 189.55517578 -122.46786621 188.79785156 -122.86987305 188.01757812 C-130.99445331 172.06939059 -136.22703424 155.55994911 -136.42578125 137.51953125 C-136.4355751 136.78411102 -136.44536896 136.0486908 -136.45545959 135.29098511 C-136.74430442 107.99074522 -135.32147536 81.27752201 -115.5 60.3125 C-113.15329765 57.93219332 -111.49228155 56.95819674 -108.1875 56.375 C-108.14625 55.446875 -108.105 54.51875 -108.0625 53.5625 C-106.03475705 39.97114183 -93.5368306 28.39279583 -83.1875 20.375 C-59.48078819 3.70452685 -28.20360361 -0.06736367 0 0 Z " fill="#695C5E" transform="translate(252.1875,7.625)"/>
<path d="M0 0 C9.57299396 0.64308706 9.57299396 0.64308706 13.3125 3.75 C13.92738281 4.23984375 14.54226563 4.7296875 15.17578125 5.234375 C17 7 17 7 18.57666016 9.46118164 C21.90760491 12.95085467 24.97685038 13.43629122 29.59765625 14.38671875 C30.84366859 14.66863823 30.84366859 14.66863823 32.11485291 14.95625305 C34.76037757 15.55170392 37.41069236 16.12075102 40.0625 16.6875 C42.71662703 17.26948003 45.36938211 17.85694458 48.02085876 18.45088196 C49.66848053 18.81839889 51.31784274 19.1782172 52.9690094 19.52946472 C56.48793754 20.30087072 58.96990148 20.97993432 62 23 C64.27143977 29.55669446 64.26283444 35.83480575 64.1953125 42.71875 C64.1924826 43.81723267 64.18965271 44.91571533 64.18673706 46.04748535 C64.17560486 49.531771 64.15051298 53.01579296 64.125 56.5 C64.11496121 58.8723921 64.10583694 61.24478826 64.09765625 63.6171875 C64.07568834 69.41154724 64.04228046 75.20575477 64 81 C62.89229248 81.30019043 61.78458496 81.60038086 60.64331055 81.90966797 C54.35903487 83.79036054 49.7923717 88.09596238 46.5 93.75 C43.70024312 100.21193888 44.01448945 107.23663082 46.5 113.75 C49.37542883 119.44969345 53.98899618 123.17755032 59.375 126.4375 C67.47052096 128.17225449 74.82047395 127.21595657 82 123 C87.09182835 118.66926599 90.50249533 113.09673597 91.31640625 106.39453125 C91.63824467 98.86766487 90.30110528 93.62333899 85.19921875 88.0234375 C80.96883568 84.03127017 77.65692159 82.53303439 72 81 C71.9845388 80.10250282 71.9845388 80.10250282 71.96876526 79.18687439 C71.8603092 72.94096815 71.74574485 66.69519483 71.62768555 60.44946289 C71.58446166 58.12071523 71.54277808 55.79193844 71.50268555 53.46313477 C71.44467816 50.10944859 71.38107233 46.75590735 71.31640625 43.40234375 C71.29969376 42.36665756 71.28298126 41.33097137 71.26576233 40.26390076 C71.16043241 35.08598188 70.87967514 30.10587243 70 25 C79.87759136 26.33433656 89.09462389 29.39241957 98.5 32.5625 C99.29758728 32.83011139 100.09517456 33.09772278 100.91693115 33.3734436 C141.74597929 47.13608443 159.9426943 71.2413553 179.08203125 109.015625 C200 151.30735185 200 151.30735185 200 168 C123.44 168 46.88 168 -32 168 C-31.41800273 163.9260191 -30.83779353 159.9220316 -30.08984375 155.88671875 C-29.90897217 154.90888428 -29.72810059 153.9310498 -29.54174805 152.92358398 C-29.34234619 151.85567627 -29.14294434 150.78776855 -28.9375 149.6875 C-28.72198486 148.52871338 -28.50646973 147.36992676 -28.28442383 146.17602539 C-25.08502662 129.02889311 -21.79999923 111.89783357 -18.52789307 94.76446533 C-17.14461739 87.52054058 -15.76263094 80.27637021 -14.38162231 73.03201294 C-14.04459781 71.26446647 -13.70741992 69.49694924 -13.37008667 67.72946167 C-11.66290921 58.78400976 -9.96337931 49.8373964 -8.3046875 40.8828125 C-5.76826854 27.19938799 -3.19858479 13.54694734 0 0 Z " fill="#EBECEC" transform="translate(304,336)"/>
<path d="M0 0 C1.64586782 5.37602239 2.73594572 10.71306867 3.6875 16.25 C5.42007999 26.05056299 7.34104748 35.80796215 9.3125 45.5625 C12.76966911 62.69192744 16.03104253 79.85543775 19.25390625 97.03027344 C20.22246084 102.18862556 21.20363893 107.34454812 22.1875 112.5 C22.34114014 113.30840332 22.49478027 114.11680664 22.65307617 114.94970703 C23.42048825 118.98431497 24.1977983 123.01672046 24.98828125 127.046875 C27.63811337 140.67458307 29.80266601 154.26666255 32 168 C-44.56 168 -121.12 168 -200 168 C-198.87200098 158.97600785 -198.87200098 158.97600785 -197.50390625 154.77734375 C-197.19815674 153.83898682 -196.89240723 152.90062988 -196.57739258 151.93383789 C-196.24247803 150.94504639 -195.90756348 149.95625488 -195.5625 148.9375 C-195.03015747 147.36246704 -195.03015747 147.36246704 -194.48706055 145.75561523 C-185.25075117 119.02650776 -172.66831648 92.89998752 -156 70 C-155.52288574 69.34402832 -155.04577148 68.68805664 -154.55419922 68.01220703 C-131.951334 37.32313791 -89.94106031 27.61414364 -54 20 C-53.34 20 -52.68 20 -52 20 C-52 26.6 -52 33.2 -52 40 C-54.083125 40.515625 -56.16625 41.03125 -58.3125 41.5625 C-69.98115162 44.75440388 -78.83129073 51.03510375 -85.4296875 61.203125 C-89.43488039 68.3603336 -90.68879167 76.00482725 -92 84 C-89.36 84 -86.72 84 -84 84 C-84.103125 83.0925 -84.20625 82.185 -84.3125 81.25 C-84.23631768 71.82243765 -78.7145294 63.6721536 -72.40234375 57.12890625 C-68.89341465 54.01936745 -65.28052462 51.87426413 -61 50 C-60.05125 49.566875 -59.1025 49.13375 -58.125 48.6875 C-52.21105034 47.38643108 -45.84066766 47.28618907 -40 49 C-41.76534644 53.84015316 -44.19536725 58.2835127 -46.625 62.8125 C-47.25535156 63.99489258 -47.25535156 63.99489258 -47.8984375 65.20117188 C-48.9300009 67.13535326 -49.96391172 69.06823983 -51 71 C-44.84239019 72.43465771 -38.67855377 73.61821273 -32.4375 74.625 C-31.61958984 74.7590625 -30.80167969 74.893125 -29.95898438 75.03125 C-27.97302652 75.35643608 -25.98656588 75.67854921 -24 76 C-26.38739779 87.08616103 -28.96943323 98.07061558 -32 109 C-31.46503906 109.20625 -30.93007812 109.4125 -30.37890625 109.625 C-27.02052273 111.56613464 -24.611881 114.21733118 -21.9375 117 C-17.75878134 121.32816662 -17.75878134 121.32816662 -13 125 C-13.3125 127.375 -13.3125 127.375 -14 130 C-17.38805161 132.25870108 -18.77350741 132.29259413 -22.76171875 132.4140625 C-23.87998047 132.45273437 -24.99824219 132.49140625 -26.15039062 132.53125 C-27.90125977 132.57765625 -27.90125977 132.57765625 -29.6875 132.625 C-30.86634766 132.66367187 -32.04519531 132.70234375 -33.25976562 132.7421875 C-36.17301977 132.83654391 -39.08626607 132.92213161 -42 133 C-42.38218767 134.65614657 -42.71395102 136.32457024 -43 138 C-40.36472538 140.63527462 -32.91417556 139.28398892 -29.375 139.3125 C-28.19808594 139.34150391 -27.02117187 139.37050781 -25.80859375 139.40039062 C-19.01499049 139.45006264 -14.32753235 139.42056638 -9 135 C-4.588878 128.96565326 -4.41154004 123.95593022 -4.46875 116.6171875 C-4.4649231 115.5259256 -4.46109619 114.4346637 -4.45715332 113.31033325 C-4.45443854 111.00570756 -4.46176919 108.70105082 -4.47851562 106.39648438 C-4.49980578 102.90683396 -4.47876196 99.41927166 -4.453125 95.9296875 C-4.43067864 79.23221563 -5.3253809 65.95286206 -17 53 C-24.84100776 45.70603929 -33.76965678 42.55758581 -44 40 C-44 32.74 -44 25.48 -44 18 C-41.875625 17.38125 -39.75125 16.7625 -37.5625 16.125 C-36.86640625 15.91987793 -36.1703125 15.71475586 -35.453125 15.50341797 C-31.99278504 14.50148878 -28.62360027 13.75696219 -25.0625 13.25 C-20.4328926 12.31041178 -18.57507252 9.57329834 -15.75 5.9765625 C-11.54600479 1.22830005 -6.27630037 -0.62763004 0 0 Z " fill="#E9EAEB" transform="translate(208,336)"/>
<path d="M0 0 C0.63164062 0.43570312 1.26328125 0.87140625 1.9140625 1.3203125 C19.80442096 13.2300324 37.64573548 17.62209031 58.75 13.8125 C68.62297964 11.59420394 76.96143891 8.11629648 85 2 C85.66 2 86.32 2 87 2 C87.25821261 8.05578716 86.2761128 13.54814713 85.05859375 19.46875 C84.85554626 20.48543259 84.65249878 21.50211517 84.44329834 22.54960632 C84.00696136 24.73262542 83.56779527 26.91508059 83.12606812 29.09701538 C81.95998548 34.85993293 80.81546845 40.62711514 79.671875 46.39453125 C79.44207443 47.55197342 79.21227386 48.70941559 78.97550964 49.90193176 C76.91899574 60.30864669 75.02365291 70.73998739 73.1875 81.1875 C71.03793916 93.38948226 68.72699811 105.5323675 66.12890625 117.6484375 C64.72563532 124.21317862 63.48436762 130.80752913 62.25512695 137.40673828 C62.10390381 138.2161084 61.95268066 139.02547852 61.796875 139.859375 C61.60109863 140.91850098 61.60109863 140.91850098 61.40136719 141.99902344 C60.99738242 144.01304971 60.49820298 146.00718809 60 148 C49.44 148 38.88 148 28 148 C24.62981244 133.3958539 24.62981244 133.3958539 23.5703125 127.390625 C23.45514282 126.74531326 23.33997314 126.10000153 23.22131348 125.43513489 C22.97840863 124.07393555 22.73677686 122.71250844 22.49639893 121.3508606 C21.85002728 117.69458529 21.19123706 114.04055758 20.53125 110.38671875 C20.39981598 109.65903793 20.26838196 108.93135712 20.13296509 108.18162537 C19.03400056 102.12736499 17.85258225 96.09201889 16.625 90.0625 C13.97634963 77.03896697 11.50402977 63.98307376 9.02978516 50.92553711 C7.42520587 42.46172432 5.81259157 33.99996708 4.15234375 25.546875 C4.01006851 24.82065948 3.86779327 24.09444397 3.72120667 23.34622192 C3.0608728 19.97647618 2.39702336 16.60754806 1.72680664 13.23974609 C1.3825061 11.48525146 1.3825061 11.48525146 1.03125 9.6953125 C0.83080078 8.68484863 0.63035156 7.67438477 0.42382812 6.63330078 C0 4 0 4 0 0 Z " fill="#FECF97" transform="translate(212,356)"/>
<path d="M0 0 C4.98311076 3.96525272 8.99305076 8.11631645 12.75 13.25 C13.26240234 13.94472412 13.77480469 14.63944824 14.30273438 15.35522461 C33.01195434 41.13218034 60 83.29847583 60 116 C27 116 -6 116 -40 116 C-25.69351947 73.0805584 -25.69351947 73.0805584 -19.89868164 56.01342773 C-18.79791482 52.76951813 -17.70071276 49.52441535 -16.60351562 46.27929688 C-12.83380023 35.15568105 -8.98600686 24.06405839 -5.01171875 13.01171875 C-4.43149712 11.39774956 -4.43149712 11.39774956 -3.83955383 9.75117493 C-1.13160035 2.2632007 -1.13160035 2.2632007 0 0 Z " fill="#E4E5E6" transform="translate(444,388)"/>
<path d="M0 0 C2.24647571 1.48478004 4.42094013 3.02067909 6.5625 4.65234375 C3.46507084 6.71729653 2.08483376 6.99546264 -1.5 7.46484375 C-10.80201341 9.0622833 -18.65805143 13.05944576 -24.4375 20.65234375 C-30.48524246 30.35124988 -31.70561299 39.98033804 -32.0625 51.21484375 C-32.10117188 52.22353516 -32.13984375 53.23222656 -32.1796875 54.27148438 C-32.27296203 56.73160015 -32.35875516 59.19172741 -32.4375 61.65234375 C-31.70611816 61.74394775 -30.97473633 61.83555176 -30.22119141 61.92993164 C-18.25974556 63.53056522 -7.89398163 69.61490969 -0.49609375 79.15625 C6.24067472 89.04340706 8.02955712 98.81789099 7.99609375 110.63671875 C8.0013356 111.7365509 8.00657745 112.83638306 8.01197815 113.96954346 C8.01835641 116.27542278 8.01711634 118.58133482 8.00854492 120.88720703 C7.99998829 124.40716155 8.02893193 127.92551577 8.06054688 131.4453125 C8.06215806 133.6966141 8.06158293 135.94791856 8.05859375 138.19921875 C8.06982773 139.2441449 8.08106171 140.28907104 8.09263611 141.36566162 C8.03243348 147.68709941 7.30240175 151.50113405 3.5625 156.65234375 C-2.91516233 162.65603079 -9.09644932 161.83535227 -17.5 161.83984375 C-18.70978516 161.85208984 -19.91957031 161.86433594 -21.16601562 161.87695312 C-22.89561523 161.87985352 -22.89561523 161.87985352 -24.66015625 161.8828125 C-25.71984619 161.88692139 -26.77953613 161.89103027 -27.87133789 161.89526367 C-30.4375 161.65234375 -30.4375 161.65234375 -32.4375 159.65234375 C-31.88194444 155.09678819 -31.88194444 155.09678819 -30.4375 153.65234375 C-28.62024563 153.51872763 -26.79822419 153.44885777 -24.9765625 153.40625 C-23.86539063 153.37337891 -22.75421875 153.34050781 -21.609375 153.30664062 C-19.25269706 153.24564731 -16.89592098 153.18833059 -14.5390625 153.13476562 C-13.4253125 153.10060547 -12.3115625 153.06644531 -11.1640625 153.03125 C-10.13877441 153.00619385 -9.11348633 152.9811377 -8.05712891 152.95532227 C-5.20625286 152.82710195 -5.20625286 152.82710195 -2.4375 150.65234375 C-1.99283183 146.78204479 -1.99283183 146.78204479 -3.90625 145.01171875 C-4.5765625 144.480625 -5.246875 143.94953125 -5.9375 143.40234375 C-9.79952367 140.2275129 -13.29572556 136.8424616 -16.7734375 133.25390625 C-18.36172733 131.56605651 -18.36172733 131.56605651 -20.4375 130.65234375 C-19.31778786 123.3658588 -17.65917755 116.2367675 -15.875 109.08984375 C-15.65303955 108.1968457 -15.4310791 107.30384766 -15.20239258 106.38378906 C-13.56682926 99.91100228 -13.56682926 99.91100228 -12.4375 97.65234375 C-13.62085938 97.53117187 -14.80421875 97.41 -16.0234375 97.28515625 C-24.25835647 96.41969744 -32.34860014 95.47886952 -40.4375 93.65234375 C-39.19006064 91.13021515 -37.93962931 88.60964297 -36.6875 86.08984375 C-36.33945313 85.38537109 -35.99140625 84.68089844 -35.6328125 83.95507812 C-33.37912392 79.42683349 -30.98657588 75.02136795 -28.4375 70.65234375 C-40.89825644 69.88631364 -50.38786075 71.17570516 -60.375 79.40234375 C-67.91078264 86.63778723 -71.20861794 95.41165993 -72.4375 105.65234375 C-75.0775 105.65234375 -77.7175 105.65234375 -80.4375 105.65234375 C-81.4233262 95.05471211 -77.07568369 85.29078474 -70.64453125 77.09375 C-63.80448795 69.52733042 -55.76020406 64.26702276 -45.6796875 62.546875 C-44.69597168 62.37647705 -43.71225586 62.2060791 -42.69873047 62.03051758 C-41.95252441 61.90572021 -41.20631836 61.78092285 -40.4375 61.65234375 C-40.46368408 60.8116333 -40.48986816 59.97092285 -40.5168457 59.10473633 C-40.60317905 55.9195822 -40.66527826 52.73503311 -40.7121582 49.54907227 C-40.73696716 48.18265904 -40.77082712 46.81637356 -40.81469727 45.45043945 C-41.23299576 32.06980894 -38.55036515 21.15347288 -29.67578125 10.875 C-22.65488371 3.90311396 -10.14579484 -5.60945388 0 0 Z " fill="#E3E4E5" transform="translate(196.4375,314.34765625)"/>
<path d="M0 0 C4.09466273 0.69140646 7.78868836 1.95958984 11.6875 3.375 C36.93084457 12.01886678 62.591898 10.48056039 87.609375 2.0859375 C90.41495525 1.18737608 93.1020457 0.49774024 96 0 C96.30582648 9.99033152 96.21578335 19.14624847 93.75390625 28.88671875 C92.94126065 32.24256612 92.44340642 35.57759122 92 39 C91.67 38.01 91.34 37.02 91 36 C90.2471875 36.51949219 89.494375 37.03898437 88.71875 37.57421875 C72.0305093 48.53093989 52.30551569 52.85244445 32.5 49 C24.51197575 46.9083727 17.11503238 43.13682043 10 39 C9.35184326 38.64365479 8.70368652 38.28730957 8.03588867 37.92016602 C4.55492761 35.78809422 2.67139985 34.17009187 1.66015625 30.13671875 C1.42647553 28.65868401 1.22870911 27.17463413 1.0625 25.6875 C0.95317139 24.90584473 0.84384277 24.12418945 0.73120117 23.31884766 C-0.2596889 15.55283471 -0.28733796 7.81133558 0 0 Z " fill="#F0B9A5" transform="translate(208,322)"/>
<path d="M0 0 C14.9401935 8.11177734 26.70277378 20.85527571 31.79882812 37.30102539 C33.54167167 45.28651206 34.07746391 53.03995024 33.99414062 61.19165039 C33.99131073 62.26227722 33.98848083 63.33290405 33.98556519 64.43597412 C33.97449745 67.80777855 33.94941903 71.17930319 33.92382812 74.55102539 C33.91378096 76.8570111 33.90465818 79.16300103 33.89648438 81.46899414 C33.8746023 87.07976439 33.84126162 92.69037489 33.79882812 98.30102539 C35.45362183 98.5000647 35.45362183 98.5000647 37.1418457 98.703125 C43.48716737 99.74055692 47.46194848 104.22684147 51.25976562 109.22290039 C54.39695181 114.60729087 54.76336526 120.21767278 53.79882812 126.30102539 C51.29112835 134.012757 47.02043329 139.44002089 39.92382812 143.32836914 C34.07850724 145.88569703 27.83655517 146.41029106 21.66601562 144.71508789 C14.83778627 141.79635456 9.68810444 135.92213833 6.29882812 129.42602539 C5.17362111 122.39348153 4.64387284 115.56298765 8.33789062 109.22290039 C12.13570777 104.22684147 16.11048888 99.74055692 22.45581055 98.703125 C23.55900635 98.57043213 24.66220215 98.43773926 25.79882812 98.30102539 C25.73153561 91.3447119 25.6416156 84.38894756 25.53637695 77.43310547 C25.50323792 75.06956523 25.47517211 72.70594794 25.45239258 70.34228516 C25.4186439 66.93366845 25.36631684 63.52575076 25.31054688 60.11743164 C25.30415695 59.07019424 25.29776703 58.02295685 25.29118347 56.94398499 C24.99965194 42.21055548 18.23220341 27.71735268 7.79882812 17.30102539 C-5.03048311 6.74841835 -18.09343542 3.64010263 -34.20117188 1.30102539 C-21.73850589 -8.6944123 -13.87006724 -7.17479137 0 0 Z " fill="#AAAEB1" transform="translate(342.201171875,318.698974609375)"/>
<path d="M0 0 C2.24647571 1.48478004 4.42094013 3.02067909 6.5625 4.65234375 C3.46507084 6.71729653 2.08483376 6.99546264 -1.5 7.46484375 C-10.80201341 9.0622833 -18.65805143 13.05944576 -24.4375 20.65234375 C-30.48524246 30.35124988 -31.70561299 39.98033804 -32.0625 51.21484375 C-32.10117188 52.22353516 -32.13984375 53.23222656 -32.1796875 54.27148438 C-32.27296203 56.73160015 -32.35875516 59.19172741 -32.4375 61.65234375 C-31.70611816 61.74394775 -30.97473633 61.83555176 -30.22119141 61.92993164 C-18.25974556 63.53056522 -7.89398163 69.61490969 -0.49609375 79.15625 C5.05498353 87.30323815 8.2242171 95.72658732 7.5625 105.65234375 C4.9225 105.65234375 2.2825 105.65234375 -0.4375 105.65234375 C-0.685 104.37359375 -0.9325 103.09484375 -1.1875 101.77734375 C-3.62265809 91.13603649 -7.58341735 82.63492156 -16.640625 76.05078125 C-24.7896149 71.17848309 -34.02181733 69.44520495 -43.4375 70.65234375 C-53.66534015 73.46794635 -62.0114519 79.01586825 -67.375 88.27734375 C-70.21819957 93.98328377 -71.67658534 99.31138829 -72.4375 105.65234375 C-75.0775 105.65234375 -77.7175 105.65234375 -80.4375 105.65234375 C-81.4233262 95.05471211 -77.07568369 85.29078474 -70.64453125 77.09375 C-63.80448795 69.52733042 -55.76020406 64.26702276 -45.6796875 62.546875 C-44.69597168 62.37647705 -43.71225586 62.2060791 -42.69873047 62.03051758 C-41.95252441 61.90572021 -41.20631836 61.78092285 -40.4375 61.65234375 C-40.46368408 60.8116333 -40.48986816 59.97092285 -40.5168457 59.10473633 C-40.60317905 55.9195822 -40.66527826 52.73503311 -40.7121582 49.54907227 C-40.73696716 48.18265904 -40.77082712 46.81637356 -40.81469727 45.45043945 C-41.23299576 32.06980894 -38.55036515 21.15347288 -29.67578125 10.875 C-22.65488371 3.90311396 -10.14579484 -5.60945388 0 0 Z " fill="#444345" transform="translate(196.4375,314.34765625)"/>
<path d="M0 0 C3.79083314 1.89541657 5.06605712 7.49353504 6.7265625 11.30273438 C8.525916 15.28851161 10.3479935 18.53165015 13.1875 21.87109375 C16.87998405 26.58700002 17.02751091 31.1676074 17.25 37 C17.35333364 38.89617222 17.46261164 40.79203078 17.578125 42.6875 C17.66054443 44.04004883 17.66054443 44.04004883 17.74462891 45.41992188 C18.10724953 49.08356888 19.03422206 52.45096237 20 56 C20.125 59.5 20.125 59.5 20 62 C15.34131945 64.32934028 8.65229558 63.66986305 3.7109375 62.421875 C-4.74499326 58.71608861 -10.71649381 50.40382524 -14 42 C-14.35449219 41.11183594 -14.70898438 40.22367188 -15.07421875 39.30859375 C-17.39962803 30.99795383 -17.60026344 20.15385794 -13.9375 12.25 C-10.61544197 6.77615439 -5.96408874 2.4393001 0 0 Z " fill="#EFB9A6" transform="translate(124,185)"/>
<path d="M0 0 C0.63164062 0.43570312 1.26328125 0.87140625 1.9140625 1.3203125 C19.80442096 13.2300324 37.64573548 17.62209031 58.75 13.8125 C68.62297964 11.59420394 76.96143891 8.11629648 85 2 C85.66 2 86.32 2 87 2 C87.35393275 19.27634238 87.35393275 19.27634238 82.51171875 24.65234375 C80.3644306 25.79725756 78.35970567 26.39301331 76 27 C74.91589844 27.35191406 73.83179688 27.70382812 72.71484375 28.06640625 C65.80253217 30.22509333 59.23141706 31.7642954 52 32 C51.30664551 32.03109863 50.61329102 32.06219727 49.89892578 32.09423828 C37.61363981 32.5992521 26.7668057 31.55909555 15 28 C13.89140625 27.76539063 12.7828125 27.53078125 11.640625 27.2890625 C8.20425335 26.2981511 6.48291098 25.60201741 4 23 C1.0298125 15.84942056 0 7.69402161 0 0 Z " fill="#FEAC6B" transform="translate(212,356)"/>
<path d="M0 0 C7.33756719 1.25184846 11.66975718 5.03128692 16 11 C18.65436054 16.23178309 19.52222397 20.34888421 19.4375 26.1875 C19.42920166 26.93 19.42090332 27.6725 19.41235352 28.4375 C19.08274983 39.303865 15.66055074 48.18500267 8 56 C2.55645889 60.74308545 -1.32101142 63.14916457 -8.6875 63.0625 C-9.68136719 63.05347656 -10.67523438 63.04445312 -11.69921875 63.03515625 C-12.83810547 63.01775391 -12.83810547 63.01775391 -14 63 C-13.71125 61.72125 -13.4225 60.4425 -13.125 59.125 C-12.120549 54.14518661 -11.53043965 49.17154393 -11 44.125 C-8.88905173 24.4322884 -8.88905173 24.4322884 -5.0859375 15.66796875 C-3.01336311 10.57599641 -1.5526946 5.26925081 0 0 Z " fill="#EFB9A6" transform="translate(381,185)"/>
<path d="M0 0 C14.93897533 8.11111594 26.70482177 20.855379 31.79882812 37.30102539 C33.52072853 45.21385279 34.0785304 52.8956871 33.99414062 60.97290039 C33.99131073 62.02133118 33.98848083 63.06976196 33.98556519 64.14996338 C33.97450134 67.45044084 33.9494238 70.750632 33.92382812 74.05102539 C33.91378046 76.30883393 33.90465776 78.56664679 33.89648438 80.82446289 C33.87460749 86.31674565 33.84127096 91.80886506 33.79882812 97.30102539 C31.15882813 97.30102539 28.51882813 97.30102539 25.79882812 97.30102539 C25.79296188 96.70713516 25.78709564 96.11324493 25.78105164 95.50135803 C25.71682711 89.28738427 25.63233424 83.07391456 25.53637695 76.86035156 C25.50324266 74.54531525 25.4751754 72.23020039 25.45239258 69.91503906 C25.41863503 66.57591461 25.36630781 63.23750258 25.31054688 59.89868164 C25.30415695 58.87331802 25.29776703 57.84795441 25.29118347 56.79151917 C24.99517584 42.1312724 18.16989572 27.65514679 7.79882812 17.30102539 C-5.03048311 6.74841835 -18.09343542 3.64010263 -34.20117188 1.30102539 C-21.73850589 -8.6944123 -13.87006724 -7.17479137 0 0 Z " fill="#414042" transform="translate(342.201171875,318.698974609375)"/>
<path d="M0 0 C5.27011062 1.82426906 7.83751204 4.57251686 11 9 C12.89917882 13.52881104 12.50964051 18.58433192 10.875 23.125 C8.07984174 27.41090933 4.95224283 30.34925239 0 32 C-4.66694522 32.54225459 -8.07771048 32.4698456 -12.3125 30.3125 C-16.44673697 26.7551333 -19.58789927 23.54676857 -20.23828125 17.94921875 C-20.42001793 12.41103242 -19.74513006 9.35244845 -16 5 C-10.58420856 0.22894564 -7.09115125 -0.64682799 0 0 Z " fill="#57595C" transform="translate(376,424)"/>
<path d="M0 0 C2.64 0 5.28 0 8 0 C8.09919164 6.13805474 8.17162165 12.27563853 8.21972656 18.41430664 C8.23978913 20.50065239 8.2670459 22.58694227 8.30175781 24.6730957 C8.35051159 27.67933978 8.37302267 30.68483769 8.390625 33.69140625 C8.41127014 34.61772354 8.43191528 35.54404083 8.45318604 36.49842834 C8.45526324 42.5513761 7.52515388 46.04149308 4 51 C-2.47766233 57.00368704 -8.65894932 56.18300852 -17.0625 56.1875 C-18.87717773 56.20586914 -18.87717773 56.20586914 -20.72851562 56.22460938 C-22.45811523 56.22750977 -22.45811523 56.22750977 -24.22265625 56.23046875 C-25.28234619 56.23457764 -26.34203613 56.23868652 -27.43383789 56.24291992 C-30 56 -30 56 -32 54 C-31.44444444 49.44444444 -31.44444444 49.44444444 -30 48 C-28.19375882 47.89074168 -26.38365163 47.8441499 -24.57421875 47.82421875 C-23.46755859 47.80037109 -22.36089844 47.77652344 -21.22070312 47.75195312 C-18.87713471 47.70920146 -16.53332925 47.67783358 -14.18945312 47.65820312 C-12.52366211 47.61663086 -12.52366211 47.61663086 -10.82421875 47.57421875 C-9.29414185 47.55234497 -9.29414185 47.55234497 -7.7331543 47.5300293 C-4.9495802 47.15570234 -4.9495802 47.15570234 -2.67407227 45.57641602 C-0.0987639 41.61298753 -0.39681417 37.83719248 -0.390625 33.203125 C-0.37408875 32.25435486 -0.35755249 31.30558472 -0.34051514 30.32806396 C-0.29198561 27.30197712 -0.27065305 24.27639299 -0.25 21.25 C-0.22184449 19.19658922 -0.19191765 17.14320192 -0.16015625 15.08984375 C-0.08622516 10.05993721 -0.03668067 5.03031056 0 0 Z " fill="#AAAEB1" transform="translate(196,420)"/>
<path d="M0 0 C2.64 0 5.28 0 8 0 C8.0093457 1.28165039 8.01869141 2.56330078 8.02832031 3.88378906 C8.06820061 8.64016442 8.13395415 13.39589162 8.20751953 18.15185547 C8.23574049 20.21003898 8.25694941 22.2683311 8.27099609 24.32666016 C8.2924099 27.28604785 8.33905221 30.2441282 8.390625 33.203125 C8.39185364 34.12305237 8.39308228 35.04297974 8.39434814 35.99078369 C8.49776838 41.09175324 8.49776838 41.09175324 10.73095703 45.57861328 C13.35195902 47.22047616 14.83803867 47.50918682 17.9140625 47.5390625 C18.83960938 47.56226563 19.76515625 47.58546875 20.71875 47.609375 C21.6778125 47.61453125 22.636875 47.6196875 23.625 47.625 C25.53398467 47.65045313 27.44288465 47.68391048 29.3515625 47.7265625 C30.19541504 47.73252441 31.03926758 47.73848633 31.90869141 47.74462891 C34 48 34 48 36 50 C35.44444444 54.55555556 35.44444444 54.55555556 34 56 C30.3227956 56.36588034 26.63043199 56.37191823 22.9375 56.4375 C21.91205078 56.48326172 20.88660156 56.52902344 19.83007812 56.57617188 C13.48737993 56.66950653 9.6004554 55.89245762 4.62329102 51.88305664 C-0.29021498 46.18327144 -0.41216844 40.9598834 -0.29296875 33.7890625 C-0.28872391 32.82092621 -0.28447906 31.85278992 -0.28010559 30.85531616 C-0.26337956 27.77825527 -0.22573831 24.70186128 -0.1875 21.625 C-0.17244532 19.53256158 -0.15875829 17.44011283 -0.14648438 15.34765625 C-0.11349588 10.23151582 -0.06175528 5.11587079 0 0 Z " fill="#AAAEB1" transform="translate(116,420)"/>
<path d="M0 0 C1.59440637 1.1183211 3.12630826 2.32528361 4.63671875 3.5546875 C4.30671875 5.2046875 3.97671875 6.8546875 3.63671875 8.5546875 C0.35439005 9.60648344 -1.08032394 9.66697805 -4.3359375 8.375 C-5.35558594 7.81554687 -6.37523437 7.25609375 -7.42578125 6.6796875 C-15.75991666 2.16054724 -23.61738125 0.86989407 -32.93359375 3.6015625 C-37.35515118 5.28313915 -41.42024148 6.92599432 -45.36328125 9.5546875 C-48.05078125 9.1796875 -48.05078125 9.1796875 -50.36328125 8.5546875 C-50.69328125 6.9046875 -51.02328125 5.2546875 -51.36328125 3.5546875 C-35.99013747 -8.4764685 -16.85088679 -10.30550101 0 0 Z " fill="#484546" transform="translate(331.36328125,174.4453125)"/>
<path d="M0 0 C2.15234375 1.6953125 2.15234375 1.6953125 3.0859375 4.265625 C3.10785156 5.06742188 3.12976563 5.86921875 3.15234375 6.6953125 C2.49234375 7.3553125 1.83234375 8.0153125 1.15234375 8.6953125 C-3.48616756 8.47443101 -6.8951377 6.76710311 -10.92578125 4.68359375 C-18.62433483 0.72478469 -27.40165902 0.35746149 -35.66015625 2.9453125 C-38.51274278 4.01825644 -41.01043661 5.3429055 -43.59765625 6.9453125 C-46.84765625 8.6953125 -46.84765625 8.6953125 -49.78515625 8.4453125 C-50.46578125 8.1978125 -51.14640625 7.9503125 -51.84765625 7.6953125 C-52.17765625 6.0453125 -52.50765625 4.3953125 -52.84765625 2.6953125 C-35.39953636 -10.22922075 -18.81927301 -9.66038418 0 0 Z " fill="#474546" transform="translate(228.84765625,175.3046875)"/>
<path d="M0 0 C3.79130021 0.47473672 6.70840897 1.71668112 10.0625 3.5 C18.42982478 7.93506891 27.91378034 8.37338724 37.0625 5.78125 C40.18993975 4.52018558 43.00087457 2.75811614 45.82421875 0.92578125 C48.58979837 -0.2509555 50.16260635 0.18008765 53 1 C53.495 3.475 53.495 3.475 54 6 C43.32148525 14.27791841 31.45689765 17.5352456 18 16 C10.39513198 14.24427172 4.2252063 10.61126393 -2 6 C-1.125 1.125 -1.125 1.125 0 0 Z " fill="#EDAE9A" transform="translate(230,288)"/>
<path d="M0 0 C4.08998175 1.80720124 6.66247347 4.19069751 9 8 C9.62819266 13.0255413 9.03320735 15.95572354 6 20 C3.24705395 23.21177039 0.96958591 23.86947882 -3.25 24.4375 C-8.1843364 23.86182742 -10.79803186 21.71753928 -14 18 C-15.23534045 14.29397865 -15.45528745 11.90246386 -15 8 C-10.91704021 1.64314568 -7.65816344 -0.51919752 0 0 Z " fill="#444344" transform="translate(311,204)"/>
<path d="M0 0 C4.08998175 1.80720124 6.66247347 4.19069751 9 8 C9.62819266 13.0255413 9.03320735 15.95572354 6 20 C3.24705395 23.21177039 0.96958591 23.86947882 -3.25 24.4375 C-8.1843364 23.86182742 -10.79803186 21.71753928 -14 18 C-15.23534045 14.29397865 -15.45528745 11.90246386 -15 8 C-10.91704021 1.64314568 -7.65816344 -0.51919752 0 0 Z " fill="#444344" transform="translate(207,204)"/>
<path d="M0 0 C-1.39213332 3.64207493 -3.00794811 7.06832672 -4.8203125 10.51953125 C-5.35527344 11.54111328 -5.89023438 12.56269531 -6.44140625 13.61523438 C-6.99699219 14.67033203 -7.55257812 15.72542969 -8.125 16.8125 C-8.68832031 17.88693359 -9.25164062 18.96136719 -9.83203125 20.06835938 C-11.21919818 22.71338105 -12.6085894 25.35720895 -14 28 C-20.75 28.125 -20.75 28.125 -23 27 C-23 19.74 -23 12.48 -23 5 C-5.74193548 0 -5.74193548 0 0 0 Z " fill="#EEEFEF" transform="translate(187,349)"/>
<path d="M0 0 C3.40667322 0.44824648 5.07914607 1.05276405 8 3 C12.50850182 2.65554402 12.50850182 2.65554402 16 0 C18.625 0.375 18.625 0.375 21 1 C21.33 2.65 21.66 4.3 22 6 C15.33061889 11.78013029 15.33061889 11.78013029 9.6875 12.3125 C4.51164888 11.87386855 1.60392626 9.60392626 -2 6 C-1.44444444 1.44444444 -1.44444444 1.44444444 0 0 Z " fill="#EDAE9A" transform="translate(246,256)"/>
<path d="M0 0 C1.37478516 0.01740234 1.37478516 0.01740234 2.77734375 0.03515625 C3.69644531 0.04417969 4.61554688 0.05320312 5.5625 0.0625 C6.27277344 0.07410156 6.98304688 0.08570313 7.71484375 0.09765625 C7.71484375 2.73765625 7.71484375 5.37765625 7.71484375 8.09765625 C6.09020533 8.15161103 4.46505834 8.1904282 2.83984375 8.22265625 C1.93492187 8.24585938 1.03 8.2690625 0.09765625 8.29296875 C-2.28515625 8.09765625 -2.28515625 8.09765625 -4.28515625 6.09765625 C-3.56009338 0.15214074 -3.56009338 0.15214074 0 0 Z " fill="#434244" transform="translate(168.28515625,467.90234375)"/>
<path d="M0 0 C1.62463842 -0.05395478 3.24978541 -0.09277195 4.875 -0.125 C5.77992188 -0.14820313 6.68484375 -0.17140625 7.6171875 -0.1953125 C10 0 10 0 12 2 C11.44444444 6.55555556 11.44444444 6.55555556 10 8 C8.31391034 8.07205511 6.62499341 8.08386068 4.9375 8.0625 C4.01839844 8.05347656 3.09929687 8.04445313 2.15234375 8.03515625 C1.44207031 8.02355469 0.73179687 8.01195312 0 8 C0 5.36 0 2.72 0 0 Z " fill="#434244" transform="translate(140,468)"/>
</svg>
